<svg width="28" height="28" viewBox="0 0 28 28" fill="none" xmlns="http://www.w3.org/2000/svg">
<path d="M12.5014 2.50195H3.0014C2.7264 2.50195 2.5014 2.72695 2.5014 3.00195V12.502C2.5014 12.777 2.7264 13.002 3.0014 13.002H12.5014C12.7764 13.002 13.0014 12.777 13.0014 12.502V3.00195C13.0014 2.72695 12.7764 2.50195 12.5014 2.50195ZM10.8764 10.877H4.6264V4.62695H10.8764V10.877ZM25.0014 2.50195H15.5014C15.2264 2.50195 15.0014 2.72695 15.0014 3.00195V12.502C15.0014 12.777 15.2264 13.002 15.5014 13.002H25.0014C25.2764 13.002 25.5014 12.777 25.5014 12.502V3.00195C25.5014 2.72695 25.2764 2.50195 25.0014 2.50195ZM23.3764 10.877H17.1264V4.62695H23.3764V10.877ZM25.0014 15.002H15.5014C15.2264 15.002 15.0014 15.227 15.0014 15.502V25.002C15.0014 25.277 15.2264 25.502 15.5014 25.502H25.0014C25.2764 25.502 25.5014 25.277 25.5014 25.002V15.502C25.5014 15.227 25.2764 15.002 25.0014 15.002ZM23.3764 23.377H17.1264V17.127H23.3764V23.377ZM11.2514 20.252H7.2514V16.252C7.2514 16.1145 7.1389 16.002 7.0014 16.002H5.5014C5.3639 16.002 5.2514 16.1145 5.2514 16.252V20.252H1.2514C1.1139 20.252 1.0014 20.3645 1.0014 20.502V22.002C1.0014 22.1395 1.1139 22.252 1.2514 22.252H5.2514V26.252C5.2514 26.3895 5.3639 26.502 5.5014 26.502H7.0014C7.1389 26.502 7.2514 26.3895 7.2514 26.252V22.252H11.2514C11.3889 22.252 11.5014 22.1395 11.5014 22.002V20.502C11.5014 20.3645 11.3889 20.252 11.2514 20.252Z" fill="#3698FF"/>
</svg>
