<svg width="35" height="32" viewBox="0 0 35 32" fill="none" xmlns="http://www.w3.org/2000/svg">
<path d="M20.6235 8.71659H21.8239L25.2435 5.29692L25.4117 3.84595C19.0489 -1.76995 9.33563 -1.16483 3.71972 5.19799C2.15828 6.96554 1.02554 9.06779 0.408875 11.3432C0.789754 11.1865 1.21185 11.1618 1.60922 11.2706L8.44691 10.1428C8.44691 10.1428 8.79481 9.56739 8.97454 9.60366C12.0166 6.26314 17.1362 5.87401 20.6482 8.71659H20.6235Z" fill="#FC7E57"/>
<path d="M30.1141 11.3433C29.3276 8.44965 27.7151 5.8478 25.471 3.85767L20.6729 8.65575C22.6993 10.3112 23.8535 12.8059 23.8041 15.4225V16.275C26.1635 16.275 28.0745 18.1876 28.0745 20.5454C28.0745 22.9049 26.1619 24.8159 23.8041 24.8159H15.2615L14.4091 25.6799V30.8028L15.2615 31.6552H23.8041C28.7011 31.6932 33.0457 28.5192 34.5 23.8431C35.9509 19.1654 34.1702 14.087 30.1141 11.3433Z" fill="#3DB2FF"/>
<path d="M6.70742 31.6071H15.25V24.7694H6.70742C6.09901 24.7694 5.49719 24.6392 4.94318 24.3853L3.74283 24.7562L0.300087 28.1759L0 29.3763C1.93078 30.8338 4.28695 31.617 6.70742 31.6071Z" fill="#FFB830"/>
</svg>
