<svg width="28" height="28" viewBox="0 0 28 28" fill="none" xmlns="http://www.w3.org/2000/svg">
<path d="M17.0009 1.50391C11.7541 1.50391 7.50095 5.75703 7.50095 11.0039C7.50095 13.2008 8.24782 15.2227 9.49782 16.832L8.21345 18.1164L6.26657 16.1695C6.21898 16.123 6.15503 16.0969 6.08845 16.0969C6.02186 16.0969 5.95792 16.123 5.91032 16.1695L4.66657 17.4133C4.62 17.4609 4.59392 17.5248 4.59392 17.5914C4.59392 17.658 4.62 17.7219 4.66657 17.7695L6.61345 19.7164L5.21032 21.1195L3.26345 19.1727C3.21585 19.1261 3.15191 19.1 3.08532 19.1C3.01873 19.1 2.95479 19.1261 2.9072 19.1727L1.66345 20.4164C1.61687 20.464 1.59079 20.5279 1.59079 20.5945C1.59079 20.6611 1.61687 20.7251 1.66345 20.7727L3.61032 22.7195L1.5697 24.7602C1.52317 24.8071 1.49707 24.8706 1.49707 24.9367C1.49707 25.0028 1.52317 25.0663 1.5697 25.1133L2.89157 26.4352C2.98845 26.532 3.14782 26.532 3.2447 26.4352L11.1697 18.5102C12.838 19.8041 14.8897 20.5056 17.0009 20.5039C22.2478 20.5039 26.5009 16.2508 26.5009 11.0039C26.5009 5.75703 22.2478 1.50391 17.0009 1.50391ZM22.0384 16.0414C20.6947 17.3883 18.9041 18.1289 17.0009 18.1289C15.0978 18.1289 13.3072 17.3883 11.9634 16.0414C10.6166 14.6977 9.87595 12.907 9.87595 11.0039C9.87595 9.10078 10.6166 7.31016 11.9634 5.96641C13.3072 4.61953 15.0978 3.87891 17.0009 3.87891C18.9041 3.87891 20.6947 4.61953 22.0384 5.96641C23.3853 7.31016 24.1259 9.10078 24.1259 11.0039C24.1259 12.907 23.3853 14.6977 22.0384 16.0414Z" fill="#3698FF"/>
</svg>
