<svg width="28" height="28" viewBox="0 0 28 28" fill="none" xmlns="http://www.w3.org/2000/svg">
<g clip-path="url(#clip0_163_10483)">
<path d="M26.8997 17.5578L24.8528 15.8078C24.9497 15.2141 24.9997 14.6078 24.9997 14.0016C24.9997 13.3953 24.9497 12.7891 24.8528 12.1953L26.8997 10.4453C27.0541 10.3131 27.1646 10.1371 27.2165 9.94062C27.2684 9.74413 27.2592 9.53649 27.1903 9.34531L27.1622 9.26406C26.5987 7.68914 25.7549 6.22917 24.6715 4.95469L24.6153 4.88906C24.4839 4.73454 24.3087 4.62346 24.1129 4.57046C23.9171 4.51747 23.7098 4.52504 23.5184 4.59219L20.9778 5.49531C20.0403 4.72656 18.9934 4.12031 17.8622 3.69531L17.3715 1.03906C17.3345 0.839194 17.2376 0.65532 17.0936 0.511868C16.9495 0.368416 16.7653 0.272177 16.5653 0.235937L16.4809 0.220312C14.8528 -0.0734375 13.1403 -0.0734375 11.5122 0.220312L11.4278 0.235937C11.2278 0.272177 11.0435 0.368416 10.8995 0.511868C10.7555 0.65532 10.6586 0.839194 10.6215 1.03906L10.1278 3.70781C9.00557 4.1329 7.9605 4.73883 7.03404 5.50156L4.47466 4.59219C4.28331 4.52451 4.07589 4.51666 3.87996 4.56969C3.68404 4.62271 3.50889 4.73411 3.37779 4.88906L3.32154 4.95469C2.2395 6.23008 1.39584 7.6898 0.830915 9.26406L0.802789 9.34531C0.662164 9.73594 0.77779 10.1734 1.09341 10.4453L3.16529 12.2141C3.06841 12.8016 3.02154 13.4016 3.02154 13.9984C3.02154 14.5984 3.06841 15.1984 3.16529 15.7828L1.09341 17.5516C0.939026 17.6837 0.828528 17.8598 0.776614 18.0563C0.7247 18.2527 0.73383 18.4604 0.802789 18.6516L0.830915 18.7328C1.39654 20.3078 2.23404 21.7609 3.32154 23.0422L3.37779 23.1078C3.50921 23.2623 3.68436 23.3734 3.88017 23.4264C4.07598 23.4794 4.28325 23.4718 4.47466 23.4047L7.03404 22.4953C7.96529 23.2609 9.00591 23.8672 10.1278 24.2891L10.6215 26.9578C10.6586 27.1577 10.7555 27.3416 10.8995 27.485C11.0435 27.6285 11.2278 27.7247 11.4278 27.7609L11.5122 27.7766C13.1552 28.0719 14.8378 28.0719 16.4809 27.7766L16.5653 27.7609C16.7653 27.7247 16.9495 27.6285 17.0936 27.485C17.2376 27.3416 17.3345 27.1577 17.3715 26.9578L17.8622 24.3016C18.993 23.8777 20.0457 23.2695 20.9778 22.5016L23.5184 23.4047C23.7098 23.4724 23.9172 23.4802 24.1131 23.4272C24.309 23.3742 24.4842 23.2628 24.6153 23.1078L24.6715 23.0422C25.759 21.7578 26.5965 20.3078 27.1622 18.7328L27.1903 18.6516C27.3309 18.2672 27.2153 17.8297 26.8997 17.5578V17.5578ZM22.634 12.5641C22.7122 13.0359 22.7528 13.5203 22.7528 14.0047C22.7528 14.4891 22.7122 14.9734 22.634 15.4453L22.4278 16.6984L24.7622 18.6953C24.4083 19.5106 23.9616 20.2824 23.4309 20.9953L20.5309 19.9672L19.5497 20.7734C18.8028 21.3859 17.9715 21.8672 17.0715 22.2047L15.8809 22.6516L15.3215 25.6828C14.4389 25.7828 13.5479 25.7828 12.6653 25.6828L12.1059 22.6453L10.9247 22.1922C10.034 21.8547 9.20591 21.3734 8.46529 20.7641L7.48404 19.9547L4.56529 20.9922C4.03404 20.2766 3.59029 19.5047 3.23404 18.6922L5.59341 16.6766L5.39029 15.4266C5.31529 14.9609 5.27466 14.4797 5.27466 14.0047C5.27466 13.5266 5.31216 13.0484 5.39029 12.5828L5.59341 11.3328L3.23404 9.31719C3.58716 8.50156 4.03404 7.73281 4.56529 7.01719L7.48404 8.05469L8.46529 7.24531C9.20591 6.63594 10.034 6.15469 10.9247 5.81719L12.109 5.37031L12.6684 2.33281C13.5465 2.23281 14.4434 2.23281 15.3247 2.33281L15.884 5.36406L17.0747 5.81094C17.9715 6.14844 18.8059 6.62969 19.5528 7.24219L20.534 8.04844L23.434 7.02031C23.9653 7.73594 24.409 8.50781 24.7653 9.32031L22.4309 11.3172L22.634 12.5641ZM13.9997 8.19219C10.9622 8.19219 8.49966 10.6547 8.49966 13.6922C8.49966 16.7297 10.9622 19.1922 13.9997 19.1922C17.0372 19.1922 19.4997 16.7297 19.4997 13.6922C19.4997 10.6547 17.0372 8.19219 13.9997 8.19219ZM16.4747 16.1672C16.15 16.4927 15.7643 16.7509 15.3395 16.9268C14.9148 17.1027 14.4594 17.1929 13.9997 17.1922C13.0653 17.1922 12.1872 16.8266 11.5247 16.1672C11.1991 15.8426 10.941 15.4568 10.765 15.032C10.5891 14.6073 10.4989 14.1519 10.4997 13.6922C10.4997 12.7578 10.8653 11.8797 11.5247 11.2172C12.1872 10.5547 13.0653 10.1922 13.9997 10.1922C14.934 10.1922 15.8122 10.5547 16.4747 11.2172C16.8002 11.5418 17.0584 11.9276 17.2343 12.3523C17.4102 12.7771 17.5004 13.2324 17.4997 13.6922C17.4997 14.6266 17.134 15.5047 16.4747 16.1672Z" fill="#3698FF"/>
</g>
<defs>
<clipPath id="clip0_163_10483">
<rect width="28" height="28" fill="white"/>
</clipPath>
</defs>
</svg>
