<svg width="28" height="28" viewBox="0 0 28 28" fill="none" xmlns="http://www.w3.org/2000/svg">
<path d="M9.24951 3.74707H8.99951C9.13701 3.74707 9.24951 3.63457 9.24951 3.49707V3.74707H18.7495V3.49707C18.7495 3.63457 18.862 3.74707 18.9995 3.74707H18.7495V5.99707H20.9995V3.49707C20.9995 2.39395 20.1026 1.49707 18.9995 1.49707H8.99951C7.89639 1.49707 6.99951 2.39395 6.99951 3.49707V5.99707H9.24951V3.74707ZM24.9995 5.99707H2.99951C2.44639 5.99707 1.99951 6.44395 1.99951 6.99707V7.99707C1.99951 8.13457 2.11201 8.24707 2.24951 8.24707H4.13701L4.90889 24.5908C4.95889 25.6564 5.84014 26.4971 6.90576 26.4971H21.0933C22.162 26.4971 23.0401 25.6596 23.0901 24.5908L23.862 8.24707H25.7495C25.887 8.24707 25.9995 8.13457 25.9995 7.99707V6.99707C25.9995 6.44395 25.5526 5.99707 24.9995 5.99707ZM20.8526 24.2471H7.14639L6.39014 8.24707H21.6089L20.8526 24.2471Z" fill="black" fill-opacity="0.85"/>
</svg>
