<svg width="28" height="28" viewBox="0 0 28 28" fill="none" xmlns="http://www.w3.org/2000/svg">
<path d="M12.5015 2.50195H3.00146C2.72646 2.50195 2.50146 2.72695 2.50146 3.00195V12.502C2.50146 12.777 2.72646 13.002 3.00146 13.002H12.5015C12.7765 13.002 13.0015 12.777 13.0015 12.502V3.00195C13.0015 2.72695 12.7765 2.50195 12.5015 2.50195ZM10.8765 10.877H4.62646V4.62695H10.8765V10.877ZM25.0015 2.50195H15.5015C15.2265 2.50195 15.0015 2.72695 15.0015 3.00195V12.502C15.0015 12.777 15.2265 13.002 15.5015 13.002H25.0015C25.2765 13.002 25.5015 12.777 25.5015 12.502V3.00195C25.5015 2.72695 25.2765 2.50195 25.0015 2.50195ZM23.3765 10.877H17.1265V4.62695H23.3765V10.877ZM25.0015 15.002H15.5015C15.2265 15.002 15.0015 15.227 15.0015 15.502V25.002C15.0015 25.277 15.2265 25.502 15.5015 25.502H25.0015C25.2765 25.502 25.5015 25.277 25.5015 25.002V15.502C25.5015 15.227 25.2765 15.002 25.0015 15.002ZM23.3765 23.377H17.1265V17.127H23.3765V23.377ZM11.2515 20.252H7.25146V16.252C7.25146 16.1145 7.13896 16.002 7.00146 16.002H5.50146C5.36396 16.002 5.25146 16.1145 5.25146 16.252V20.252H1.25146C1.11396 20.252 1.00146 20.3645 1.00146 20.502V22.002C1.00146 22.1395 1.11396 22.252 1.25146 22.252H5.25146V26.252C5.25146 26.3895 5.36396 26.502 5.50146 26.502H7.00146C7.13896 26.502 7.25146 26.3895 7.25146 26.252V22.252H11.2515C11.389 22.252 11.5015 22.1395 11.5015 22.002V20.502C11.5015 20.3645 11.389 20.252 11.2515 20.252Z" fill="black" fill-opacity="0.85"/>
</svg>
